<svg width="724" height="672" viewBox="0 0 724 672" xmlns="http://www.w3.org/2000/svg">
<defs>
<linearGradient x1="87.336%" y1="7.447%" x2="66.279%" y2="44.56%" id="hero-shapes-a">
<stop stop-color="#A3A9F1" offset="0%"></stop>
<stop stop-color="#6A72E4" offset="100%"></stop>
</linearGradient>
<linearGradient x1="50%" y1="0%" x2="50%" y2="100%" id="hero-shapes-b">
<stop stop-color="#82DDFC" offset="0%"></stop>
<stop stop-color="#0181F6" offset="100%"></stop>
</linearGradient>
</defs>
<path d="M675.09 555.602c101.344 0-138.133-250.973-138.133-352.317S664.223.91 562.879.91C461.535.91.543 80.5.543 181.844S573.746 555.602 675.09 555.602z" fill="url(#hero-shapes-a)"></path>
<path d="M667.21 644.029c111.82-59.115-15.77-185.344-15.77-321.482 0-136.138-.284-340.372-136.422-321.106C378.88 20.708 433.487 224.707 85.874 306.688c-347.614 81.98 469.517 396.456 581.336 337.34z" transform="matrix(-1 0 0 1 723.483 15)" fill="url(#hero-shapes-b)"></path>
</svg>